<?xml version="1.0" standalone="no"?><!DOCTYPE svg PUBLIC "-//W3C//DTD SVG 1.1//EN" "http://www.w3.org/Graphics/SVG/1.1/DTD/svg11.dtd"><svg t="1574665663014" class="icon" viewBox="0 0 1024 1024" version="1.1" xmlns="http://www.w3.org/2000/svg" p-id="785" xmlns:xlink="http://www.w3.org/1999/xlink" width="200" height="200"><defs><style type="text/css"></style></defs><path d="M401.536 420.544l-6.496 5.248-6.016 5.344a185.504 185.504 0 0 0-54.304 179.552l69.728 284a106.784 106.784 0 0 0 206.72 2.624l77.952-285.824a181.856 181.856 0 0 0-57.696-186.464c-65.6-55.712-162.016-57.056-229.888-4.48zM513.696 816c43.328 0 80 27.52 80 64 0 36.48-36.672 64-80 64-43.36 0-80-27.52-80-64 0-36.48 36.64-64 80-64z m0 32c-27.36 0-48 15.488-48 32s20.64 32 48 32c27.328 0 48-15.488 48-32s-20.672-32-48-32z m-96-352a48 48 0 1 1 0 96 48 48 0 0 1 0-96z m192 0a48 48 0 1 1 0 96 48 48 0 0 1 0-96z m-192 32a16 16 0 1 0 0 32 16 16 0 0 0 0-32z m192 0a16 16 0 1 0 0 32 16 16 0 0 0 0-32z m99.808-50.336c6.688 15.2 11.552 31.104 14.528 47.424l4.832-0.512a80 80 0 0 0 69.12-59.36l1.216-5.44 0.16-0.96-16.736-5.504a64.64 64.64 0 0 0-73.12 24.352z m-459.648-25.792l-5.12 1.44-16.736 5.504 1.408 6.4a80 80 0 0 0 63.264 58.56l5.824 0.8 3.2 0.32c3.04-15.104 7.68-29.888 13.76-44.032l1.856-3.968a64.64 64.64 0 0 0-67.456-25.024z m63.552-223.456c-16.928 16.928-24.384 42.08-20.416 67.84l1.152 5.92 8.64 38.88 118.496 27.36c1.152 0.256 2.24 0.64 3.264 1.12a215.744 215.744 0 0 1 178.528-0.128l0.256-0.096 2.752-0.896 118.464-27.36 8.704-38.88 1.12-5.952c3.968-25.728-3.488-50.88-20.416-67.808l-12.16-12.16-1.728-2.112c-4.064-6.08-3.264-14.944 2.24-21.12 6.208-6.88 16.032-7.68 21.952-1.792l12.16 12.16c25.504 25.504 35.68 64.416 26.976 103.264l-5.76 25.792a227.328 227.328 0 0 0 61.088-31.04l19.328-87.072 1.376-7.296c4.736-29.12-1.024-58.112-16.224-80.96l-34.464-51.68-1.344-2.464a18.176 18.176 0 0 1 5.76-20.704c7.168-5.76 16.8-4.672 21.504 2.368l34.464 51.744c21.216 31.776 28.096 72.832 19.072 113.408l-10.496 47.2 5.952-7.104a227.36 227.36 0 0 0 49.824-132.576l0.224-9.696V32a16 16 0 0 1 31.744-2.88l0.256 2.88v84.576a259.36 259.36 0 0 1-191.168 250.208l-9.888 2.496-102.24 23.552a212.64 212.64 0 0 1 50.784 54.528 96.576 96.576 0 0 1 93.056-26.304l6.368 1.856 43.392 14.272-5.376 28.544a112 112 0 0 1-92.32 89.888l-6.112 0.8-4.736 0.48a213.664 213.664 0 0 1-7.456 63.008l-77.952 285.824a138.784 138.784 0 0 1-268.672-3.424l-69.728-283.968a214.112 214.112 0 0 1-5.888-61.632l-2.56-0.32a112 112 0 0 1-97.152-84.64l-1.312-6.016-5.376-28.544 43.424-14.272a96.64 96.64 0 0 1 99.104 24.128A214.592 214.592 0 0 1 368 407.008l6.368-5.6 6.944-5.664 3.776-2.848-102.336-23.616a259.328 259.328 0 0 1-129.984-74.4l-6.88-7.52A259.36 259.36 0 0 1 81.888 127.04l-0.192-10.464V32a16 16 0 0 1 31.744-2.88l0.256 2.88v84.576c0 54.912 19.872 108 55.968 149.376l-10.496-47.2c-9.024-40.576-2.112-81.632 19.072-113.408l34.464-51.744c4.704-7.04 14.336-8.128 21.504-2.368 7.168 5.728 9.152 16.096 4.448 23.168L204.16 126.08c-15.2 22.816-20.96 51.776-16.224 80.96l1.408 7.264 19.296 87.04a227.328 227.328 0 0 0 61.088 31.04l-5.76-25.76c-8.672-38.848 1.472-77.76 26.976-103.264l12.16-12.16c5.92-5.92 15.744-5.12 21.952 1.824 6.208 6.912 6.4 17.28 0.512 23.2l-12.16 12.16z" p-id="786"></path></svg>